# xmcd
#
# Track frame offsets: 
#        150
#        21464
#        39269
#        60567
#        91327
#        125314
#        137077
#        163372
#        181577
#        208182
#
# Disc length: 2978 seconds
#
# Revision: 4
# Processed by: cddbd v1.5.2PL0 Copyright (c) Steve Scherf et al.
# Submitted via: ExactAudioCopyFreeDBPlugin 1.0
#
DISCID=860ba00a
DTITLE=Junior Kimbrough - All Night Long
DYEAR=1995
DGENRE=Blues
TTITLE0=Work Me Baby
TTITLE1=Do The Romp
TTITLE2=Stay All Night
TTITLE3=Meet Me in the City
TTITLE4=You Better Run
TTITLE5=Done Got Old
TTITLE6=All Night Long
TTITLE7=I Feel Alright
TTITLE8=Nobody But You
TTITLE9=Slow Lightnin'
EXTD=
EXTT0=
EXTT1=
EXTT2=
EXTT3=
EXTT4=
EXTT5=
EXTT6=
EXTT7=
EXTT8=
EXTT9=
PLAYORDER=
